<svg width="44" height="42" viewBox="0 0 44 42" fill="none" xmlns="http://www.w3.org/2000/svg">
<g clip-path="url(#clip0_1493_2500)">
<path d="M0 11.2756H44.7699V35.4455C44.7699 39.1859 41.7377 42.2181 37.9974 42.2181H6.77253C3.03217 42.2181 0 39.1859 0 35.4455L0 11.2756Z" fill="#504CFF"/>
<path d="M0 11.2756H44.7699V7.15187C44.7699 3.60837 41.8973 0.735793 38.3538 0.735793H6.41608C2.87258 0.735793 0 3.60837 0 7.15187L0 11.2756Z" fill="#B2B1FF"/>
<path d="M16.5587 27.2812C18.9738 27.2812 20.9317 25.357 20.9317 22.9833C20.9317 20.6097 18.9738 18.6855 16.5587 18.6855C14.1436 18.6855 12.1857 20.6097 12.1857 22.9833C12.1857 25.357 14.1436 27.2812 16.5587 27.2812Z" fill="#EDEDFF"/>
<path d="M24.4965 34.5553C24.7128 35.5065 23.8883 36.3065 22.8966 36.3065H16.5585H10.2204C9.22874 36.3065 8.40428 35.5065 8.62058 34.5553C9.43298 30.9827 12.6785 28.3126 16.5585 28.3126C20.4386 28.3126 23.6841 30.9827 24.4965 34.5553Z" fill="#EDEDFF"/>
<path d="M29.9857 21.9485C31.638 21.9485 32.9774 20.6321 32.9774 19.0083C32.9774 17.3844 31.638 16.068 29.9857 16.068C28.3335 16.068 26.9941 17.3844 26.9941 19.0083C26.9941 20.6321 28.3335 21.9485 29.9857 21.9485Z" fill="#EDEDFF"/>
<path d="M35.4165 26.9251C35.5645 27.5758 35.0004 28.1231 34.322 28.1231H29.9859H25.6499C24.9715 28.1231 24.4074 27.5758 24.5554 26.9251C25.1112 24.4809 27.3315 22.6542 29.9859 22.6542C32.6404 22.6542 34.8607 24.4809 35.4165 26.9251Z" fill="#EDEDFF"/>
<rect x="4.40179" y="4.04794" width="7.55783" height="3.57772" rx="1.78886" fill="#504CFF"/>
<rect x="22.6135" y="4.04807" width="17.7563" height="3.57772" rx="1.78886" fill="white"/>
</g>
<defs>
<clipPath id="clip0_1493_2500">
<rect width="44" height="40.7689" fill="white" transform="translate(0 0.735748)"/>
</clipPath>
</defs>
</svg>
