<svg width="44" height="44" viewBox="0 0 44 44" fill="none" xmlns="http://www.w3.org/2000/svg">
<g clip-path="url(#clip0_1493_2514)">
<path d="M12.825 2.70551C12.1274 2.00786 11.2993 1.45443 10.3878 1.07683C9.47641 0.69922 8.49953 0.504832 7.51297 0.504761C6.52641 0.504689 5.5495 0.698936 4.63801 1.07641C3.72652 1.45388 2.8983 2.00719 2.20065 2.70474C1.503 3.4023 0.94957 4.23043 0.571965 5.14187C0.194359 6.0533 -2.93665e-05 7.03018 -0.000100696 8.01674C-0.000172025 9.0033 0.194075 9.98022 0.571549 10.8917C0.949022 11.8032 1.50233 12.6314 2.19988 13.3291L3.5843 14.7135L3.16175 15.1376C2.66231 15.6369 2.26614 16.2298 1.99584 16.8823C1.72554 17.5348 1.58642 18.2342 1.58642 18.9405C1.58642 19.6467 1.72554 20.3461 1.99584 20.9986C2.26614 21.6511 2.66231 22.244 3.16175 22.7434L6.59128 26.1729C6.88107 26.4528 7.2692 26.6077 7.67207 26.6042C8.07494 26.6007 8.46033 26.4391 8.74521 26.1542C9.03009 25.8693 9.19169 25.4839 9.19519 25.081C9.19869 24.6782 9.04382 24.29 8.76393 24.0002L5.3344 20.5707C5.12022 20.3567 4.95032 20.1025 4.8344 19.8228C4.71848 19.5431 4.65882 19.2433 4.65882 18.9405C4.65882 18.6377 4.71848 18.3378 4.8344 18.0581C4.95032 17.7784 5.12022 17.5242 5.3344 17.3102L5.75848 16.8861L28.7726 39.9033C29.5474 40.6784 30.5297 41.2131 31.6013 41.4429L41.1585 43.4911C41.4095 43.5451 41.6701 43.5354 41.9163 43.4627C42.1626 43.3901 42.3867 43.257 42.5683 43.0754C42.7498 42.8939 42.883 42.6697 42.9556 42.4235C43.0282 42.1772 43.0379 41.9167 42.9839 41.6657L40.9357 32.1085C40.7059 31.0369 40.1713 30.0546 39.3961 29.2797L12.825 2.70551Z" fill="#504CFF"/>
<path d="M41.5231 14.9464C42.3085 14.1608 42.9315 13.2283 43.3565 12.2019C43.7815 11.1756 44.0002 10.0756 44.0001 8.96474C44 7.85388 43.7811 6.75392 43.3559 5.72766C42.9307 4.70141 42.3076 3.76895 41.522 2.98352C40.7364 2.1981 39.8039 1.5751 38.7775 1.15008C37.7512 0.72507 36.6512 0.50637 35.5403 0.50647C33.2969 0.506671 31.1454 1.39808 29.5591 2.9846L27.6512 4.89255L27.7329 5.13131C28.6738 7.82183 30.2132 10.2636 32.235 12.2727C34.3037 14.3539 36.8302 15.9229 39.613 16.8543L41.5231 14.9464Z" fill="#FEF3E8"/>
<path d="M27.7357 4.80847L27.6518 4.89021L27.7336 5.13112C28.6744 7.82164 30.2138 10.2635 32.2356 12.2725C34.3043 14.3538 36.8309 15.9228 39.6136 16.8542L21.2009 35.2668C19.9576 36.508 19.336 37.1296 18.652 37.6631C17.8447 38.2924 16.9712 38.8319 16.0471 39.272C15.2641 39.6463 14.4317 39.9238 12.7646 40.4788L3.98205 43.4063C3.58015 43.5409 3.14869 43.5608 2.7361 43.4638C2.32352 43.3668 1.94614 43.1567 1.64633 42.8571C1.34651 42.5575 1.13614 42.1803 1.03882 41.7678C0.941505 41.3552 0.961094 40.9238 1.09539 40.5218L4.02507 31.737C4.58004 30.0721 4.85752 29.2397 5.22964 28.4567C5.6706 27.5318 6.21051 26.6585 6.84075 25.8497C7.3742 25.1657 7.99585 24.5462 9.23698 23.305L27.7357 4.80847Z" fill="#FFCD4C"/>
</g>
<defs>
<clipPath id="clip0_1493_2514">
<rect width="44" height="43.0207" fill="white" transform="translate(0 0.504639)"/>
</clipPath>
</defs>
</svg>
