<svg width="44" height="54" viewBox="0 0 44 54" fill="none" xmlns="http://www.w3.org/2000/svg">
<g clip-path="url(#clip0_1493_2483)">
<path d="M10.7978 34.4176C11.1144 33.8691 11.8155 33.6814 12.3638 33.9981L20.2233 38.5356C20.7715 38.8522 20.9594 39.5533 20.6428 40.1014L13.2406 52.9227C12.7734 53.7319 11.5863 53.6722 11.2025 52.8202L10.0362 50.2306C9.5638 49.1817 8.47367 48.5523 7.32912 48.6675L4.50323 48.9524C3.57353 49.046 2.92832 48.0477 3.39553 47.2388L10.7978 34.4176Z" fill="#FFCD4C"/>
<path d="M33.1568 34.4176C32.8402 33.8691 32.1393 33.6814 31.5909 33.9981L23.7315 38.5356C23.1832 38.8522 22.9953 39.5533 23.3119 40.1014L30.7142 52.9227C31.1814 53.7319 32.3685 53.6722 32.7522 52.8202L33.9184 50.2306C34.3909 49.1817 35.4811 48.5523 36.6257 48.6675L39.4514 48.9524C40.3811 49.046 41.0264 48.0477 40.5592 47.2388L33.1568 34.4176Z" fill="#FFCD4C"/>
<path d="M19.114 1.43702C20.561 -0.479006 23.439 -0.479006 24.886 1.43702L27.242 4.55675C28.0327 5.6037 29.3282 6.14035 30.6276 5.9591L34.4994 5.41909C36.8777 5.0874 38.9125 7.12249 38.581 9.5005L38.041 13.3724C37.8597 14.6718 38.3962 15.9674 39.4432 16.758L42.563 19.114C44.479 20.561 44.479 23.439 42.563 24.886L39.4432 27.242C38.3962 28.0327 37.8597 29.3282 38.041 30.6276L38.581 34.4996C38.9125 36.8775 36.8777 38.9127 34.4994 38.5808L30.6276 38.0409C29.3282 37.8596 28.0327 38.3964 27.242 39.4431L24.886 42.5632C23.439 44.4789 20.561 44.4789 19.114 42.5628L16.758 39.4431C15.9674 38.3964 14.6718 37.8596 13.3724 38.0409L9.5005 38.5808C7.12249 38.9127 5.0874 36.8775 5.41909 34.4996L5.9591 30.6276C6.14035 29.3282 5.6037 28.0327 4.55675 27.242L1.43702 24.886C-0.479007 23.439 -0.479004 20.561 1.43702 19.114L4.55675 16.758C5.6037 15.9674 6.14035 14.6718 5.9591 13.3724L5.41909 9.5005C5.0874 7.12249 7.12249 5.0874 9.5005 5.41909L13.3724 5.9591C14.6718 6.14035 15.9674 5.6037 16.758 4.55675L19.114 1.43702Z" fill="#504CFF"/>
<path d="M20.6106 13.3989C21.1888 12.179 22.9247 12.179 23.5028 13.3989L25.1062 16.7819C25.3395 17.2741 25.8071 17.6138 26.3474 17.6836L30.0603 18.1631C31.3991 18.3361 31.9355 19.987 30.954 20.9138L28.2321 23.4842C27.836 23.8581 27.6574 24.4079 27.758 24.9432L28.4493 28.6225C28.6986 29.9493 27.2942 30.9697 26.1094 30.3226L22.8238 28.5281C22.3457 28.2671 21.7677 28.2671 21.2897 28.5281L18.004 30.3226C16.8192 30.9697 15.4148 29.9493 15.6641 28.6225L16.3554 24.9432C16.456 24.4079 16.2774 23.8581 15.8813 23.4842L13.1594 20.9138C12.1779 19.987 12.7143 18.3361 14.0532 18.1631L17.766 17.6836C18.3063 17.6138 18.7739 17.2741 19.0072 16.7819L20.6106 13.3989Z" fill="#EDEDFF"/>
</g>
<defs>
<clipPath id="clip0_1493_2483">
<rect width="44" height="53.4959" fill="white"/>
</clipPath>
</defs>
</svg>
