<svg width="44" height="44" viewBox="0 0 44 44" fill="none" xmlns="http://www.w3.org/2000/svg">
<g clip-path="url(#clip0_1493_2490)">
<path d="M26.2292 36.0382H17.7713V40.9799H26.2292V36.0382Z" fill="#E6E6F9"/>
<path d="M30.6006 40.8846H13.4947C12.9699 40.8846 12.5444 41.3101 12.5444 41.8349V42.7853C12.5444 43.3101 12.9699 43.7356 13.4947 43.7356H30.6006C31.1255 43.7356 31.5509 43.3101 31.5509 42.7853V41.8349C31.5509 41.3101 31.1255 40.8846 30.6006 40.8846Z" fill="#F7F7F8"/>
<path d="M0 28.8157H44V4.1072C44 2.11275 42.3833 0.495941 40.3889 0.495941H3.61126C1.61681 0.495941 0 2.11275 0 4.1072V28.8157Z" fill="#E6E6F9"/>
<path d="M0 28.8156H44V32.4268C44 34.4212 42.3833 36.0381 40.3889 36.0381H3.61126C1.61681 36.0381 0 34.4212 0 32.4268V28.8156Z" fill="#F7F7F8"/>
<path d="M37.9915 3.29108H27.8716C26.2971 3.29108 25.0206 4.56751 25.0206 6.14206V11.5589C25.0206 13.1335 26.2971 14.4099 27.8716 14.4099H37.9915C39.566 14.4099 40.8425 13.1335 40.8425 11.5589V6.14206C40.8425 4.56751 39.566 3.29108 37.9915 3.29108Z" fill="#FFCD4C"/>
<path d="M17.1292 17.4863C20.0262 17.4863 22.3747 15.1378 22.3747 12.2408C22.3747 9.34376 20.0262 6.99527 17.1292 6.99527C14.2322 6.99527 11.8837 9.34376 11.8837 12.2408C11.8837 15.1378 14.2322 17.4863 17.1292 17.4863Z" fill="#504CFF"/>
<path d="M26.8857 28.5018H17.1291H7.37244C7.37244 23.1134 11.7406 18.7452 17.1291 18.7452C22.5175 18.7452 26.8857 23.1134 26.8857 28.5018Z" fill="#504CFF"/>
</g>
<defs>
<clipPath id="clip0_1493_2490">
<rect width="44" height="43.2398" fill="white" transform="translate(0 0.495941)"/>
</clipPath>
</defs>
</svg>
