<?xml version="1.0" encoding="UTF-8" standalone="no"?> <svg xmlns="http://www.w3.org/2000/svg" xmlns:xlink="http://www.w3.org/1999/xlink" xmlns:serif="http://www.serif.com/" width="100%" height="100%" viewBox="0 0 417 95" xml:space="preserve" style="fill-rule:evenodd;clip-rule:evenodd;stroke-linejoin:round;stroke-miterlimit:2;"> <g transform="matrix(1,0,0,1,-6.99998,320.928)"> <g transform="matrix(1,0,0,1,7,-282.234)"> <path d="M30.652,55.916C30.064,55.916 29.715,55.467 29.715,55.019L29.715,4.222C29.715,3.065 28.781,2.168 27.609,2.168L19.885,2.168C18.71,2.168 17.779,3.065 17.779,4.222L17.779,55.019C17.779,55.582 17.306,55.916 16.839,55.916C16.254,55.916 15.901,55.467 15.901,55.019L15.901,4.222C15.901,2.057 17.779,0.226 20,0.226L27.723,0.226C29.95,0.226 31.821,2.057 31.821,4.222L31.821,55.019C31.589,55.582 31.24,55.916 30.652,55.916Z" style="fill:rgb(230,35,54);fill-rule:nonzero;"></path> </g> <g transform="matrix(1,0,0,1,7,-281.374)"> <path d="M18.58,53.451L18.58,4.148C18.58,2.876 19.635,1.831 20.921,1.831L26.542,1.831C27.828,1.831 28.883,2.876 28.883,4.148L28.883,53.451C28.883,53.451 27.012,51.731 23.73,51.731C20.454,51.731 18.58,53.451 18.58,53.451Z" style="fill:rgb(234,227,210);fill-rule:nonzero;"></path> </g> <g transform="matrix(1,0,0,1,7,-281.114)"> <path d="M23.73,1.72L20.921,1.72C19.635,1.72 18.58,2.728 18.58,3.999L18.58,53.302C18.58,53.302 20.454,51.586 23.73,51.586L23.73,1.72Z" style="fill:rgb(192,176,155);fill-rule:nonzero;"></path> </g> <g transform="matrix(0.2795,-0.960146,-0.960146,-0.2795,74.2344,-241.08)"> <path d="M23.958,47.024C25.179,47.379 25.889,48.681 25.528,49.92L23.958,55.313C23.598,56.551 22.3,57.269 21.079,56.913L23.958,47.024Z" style="fill:rgb(0,149,212);fill-rule:nonzero;"></path> </g> <g transform="matrix(-1,0,0,1,49.3099,-330.677)"> <path d="M18.58,53.451L23.73,53.451C23.73,52.18 22.675,51.134 21.389,51.134L18.58,51.134L18.58,53.451Z" style="fill:rgb(0,92,169);fill-rule:nonzero;"></path> </g> <g transform="matrix(1,0,0,1,7,-282.234)"> <path d="M56.164,55.916C55.582,55.916 55.229,55.467 55.229,55.019L55.229,4.222C55.229,3.065 54.292,2.168 53.123,2.168L45.394,2.168C44.224,2.168 43.287,3.065 43.287,4.222L43.287,55.019C43.287,55.582 42.82,55.916 42.35,55.916C41.883,55.916 41.416,55.467 41.416,55.019L41.416,4.222C41.416,2.057 43.287,0.226 45.514,0.226L53.238,0.226C55.461,0.226 57.336,2.057 57.336,4.222L57.336,55.019C57.101,55.582 56.634,55.916 56.164,55.916Z" style="fill:rgb(0,158,61);fill-rule:nonzero;"></path> </g> <g transform="matrix(1,0,0,1,7,-281.374)"> <path d="M43.989,53.451L43.989,4.148C43.989,2.876 45.047,1.831 46.334,1.831L51.954,1.831C53.238,1.831 54.292,2.876 54.292,4.148L54.292,53.451C54.292,53.451 52.421,51.731 49.142,51.731C45.867,51.731 43.989,53.451 43.989,53.451Z" style="fill:rgb(234,227,210);fill-rule:nonzero;"></path> </g> <g transform="matrix(1,0,0,1,7,-281.114)"> <path d="M49.142,1.72L46.334,1.72C45.047,1.72 43.989,2.728 43.989,3.999L43.989,53.302C43.989,53.302 45.867,51.586 49.142,51.586L49.142,1.72Z" style="fill:rgb(192,176,155);fill-rule:nonzero;"></path> </g> <g transform="matrix(0.2795,-0.960146,-0.960146,-0.2795,92.6143,-216.587)"> <path d="M49.468,47.023C50.689,47.378 51.398,48.683 51.039,49.915L49.468,55.311C49.109,56.547 47.809,57.27 46.589,56.915L49.468,47.023Z" style="fill:rgb(0,149,212);fill-rule:nonzero;"></path> </g> <g transform="matrix(-1,0,0,1,100.132,-330.677)"> <path d="M43.989,53.451L49.142,53.451C49.142,52.18 48.085,51.134 46.798,51.134L43.989,51.134L43.989,53.451Z" style="fill:rgb(0,92,169);fill-rule:nonzero;"></path> </g> <g transform="matrix(1,0,0,1,7,-282.234)"> <path d="M81.564,55.916C80.979,55.916 80.629,55.467 80.629,55.019L80.629,4.222C80.629,3.065 79.692,2.168 78.523,2.168L70.794,2.168C69.624,2.168 68.687,3.065 68.687,4.222L68.687,55.019C68.687,55.582 68.22,55.916 67.75,55.916C67.165,55.916 66.816,55.467 66.816,55.019L66.816,4.222C66.816,2.057 68.687,0.226 70.914,0.226L78.402,0.226C80.629,0.226 82.501,2.057 82.501,4.222L82.501,55.019C82.501,55.582 82.148,55.916 81.564,55.916Z" style="fill:rgb(251,186,0);fill-rule:nonzero;"></path> </g> <g transform="matrix(1,0,0,1,7,-281.374)"> <path d="M69.504,53.451L69.504,4.148C69.504,2.876 70.559,1.831 71.848,1.831L77.465,1.831C78.752,1.831 79.807,2.876 79.807,4.148L79.807,53.451C79.807,53.451 77.932,51.731 74.657,51.731C71.375,51.731 69.504,53.451 69.504,53.451Z" style="fill:rgb(234,227,210);fill-rule:nonzero;"></path> </g> <g transform="matrix(1,0,0,1,7,-281.114)"> <path d="M74.657,1.72L71.848,1.72C70.559,1.72 69.504,2.728 69.504,3.999L69.504,53.302C69.504,53.302 71.375,51.586 74.657,51.586L74.657,1.72Z" style="fill:rgb(192,176,155);fill-rule:nonzero;"></path> </g> <g transform="matrix(0.279403,-0.960174,-0.960174,-0.279403,110.924,-192.202)"> <path d="M74.868,47.023C76.089,47.378 76.798,48.683 76.437,49.921L74.868,55.314C74.509,56.547 73.21,57.27 71.989,56.915L74.868,47.023Z" style="fill:rgb(0,149,212);fill-rule:nonzero;"></path> </g> <g transform="matrix(-1,0,0,1,151.161,-330.677)"> <path d="M69.504,53.451L74.657,53.451C74.657,52.18 73.602,51.134 72.312,51.134L69.504,51.134L69.504,53.451Z" style="fill:rgb(0,92,169);fill-rule:nonzero;"></path> </g> <g transform="matrix(1,0,0,1,7,-376.058)"> <path d="M97.369,94.721C97.134,94.721 96.899,94.61 96.781,94.499L55.461,61.443C55.344,61.332 55.229,61.217 54.994,61.069C54.057,60.398 53.238,59.724 53.238,58.118C53.238,57.558 52.77,57.073 52.186,57.073L45.981,57.073C45.394,57.073 44.927,57.558 44.927,58.118C44.927,59.838 44.11,60.398 43.173,61.069C43.052,61.217 42.938,61.332 42.703,61.443L1.615,94.499C1.148,94.836 0.563,94.721 0.21,94.387C-0.139,93.902 -0.022,93.342 0.331,93.005L41.648,59.949C41.769,59.838 41.883,59.724 42.118,59.612C42.938,59.015 43.052,58.789 43.052,58.118C43.052,56.513 44.342,55.13 46.096,55.13L52.3,55.13C53.94,55.13 55.344,56.402 55.344,58.118C55.344,58.904 55.461,59.015 56.284,59.612C56.399,59.724 56.634,59.838 56.751,59.949L98.071,93.005C98.538,93.342 98.538,93.902 98.185,94.387C97.951,94.61 97.604,94.721 97.369,94.721Z" style="fill:rgb(0,92,169);fill-rule:nonzero;"></path> </g> <g transform="matrix(1,0,0,1,7,-372.733)"> <path d="M43.983,58.789L5.005,89.457C5.005,89.457 8.283,89.231 9.923,90.577C9.923,90.577 47.147,76.42 49.019,61.666L49.019,56.064L45.387,56.064C45.508,56.064 45.622,57.521 43.983,58.789Z" style="fill:rgb(192,176,155);fill-rule:nonzero;"></path> </g> <g transform="matrix(1,0,0,1,7,-372.622)"> <path d="M54.292,58.678L93.271,89.457C93.271,89.457 89.992,89.231 88.356,90.577C88.356,90.577 51.131,76.42 49.26,61.666L49.26,55.953L52.888,55.953C52.77,55.953 52.653,57.41 54.292,58.678Z" style="fill:rgb(234,227,210);fill-rule:nonzero;"></path> </g> <g transform="matrix(-1,0,0,1,101.536,-408.628)"> <path d="M45.394,91.959L49.025,91.959C49.025,91.959 49.142,90.577 48.088,90.577L45.394,90.577L45.394,91.959Z" style="fill:rgb(230,35,54);fill-rule:nonzero;"></path> </g> <g transform="matrix(1,0,0,1,7,-408.628)"> <path d="M49.145,91.959L52.777,91.959C52.777,91.959 52.891,90.577 51.839,90.577L49.145,90.577L49.145,91.959Z" style="fill:rgb(234,81,83);fill-rule:nonzero;"></path> </g> <g transform="matrix(1,0,0,1,7,-309.162)"> <path d="M143.028,47.138L143.028,60.061L135.769,60.061L135.769,53.785L120.901,53.785L120.901,60.061L113.645,60.061L113.645,47.138L116.688,47.138C118.21,45.084 119.265,42.208 119.265,36.755L119.265,23.009L139.512,23.009L139.512,47.249L143.028,47.249L143.028,47.138ZM132.376,47.249L132.376,29.656L126.521,29.656L126.521,36.977C126.521,42.208 125.584,45.307 124.415,47.249L132.376,47.249Z" style="fill:rgb(58,59,65);fill-rule:nonzero;"></path> </g> <g transform="matrix(1,0,0,1,7,-315.552)"> <path d="M146.18,44.75C146.18,35.709 153.554,28.725 162.567,28.725C171.583,28.725 178.954,35.709 178.954,44.75C178.954,53.751 171.583,60.735 162.567,60.735C153.554,60.735 146.18,53.899 146.18,44.75ZM171.812,44.75C171.812,39.26 167.72,35.598 162.685,35.598C157.535,35.598 153.554,39.26 153.554,44.75C153.554,50.24 157.649,53.899 162.685,53.899C167.72,53.899 171.812,50.352 171.812,44.75Z" style="fill:rgb(58,59,65);fill-rule:nonzero;"></path> </g> <g transform="matrix(1,0,0,1,7,-314.541)"> <path d="M214.892,59.723L207.633,59.723L207.633,40.302L201.546,54.345L196.631,54.345L190.547,40.302L190.547,60.061L183.284,60.061L183.284,28.388L191.478,28.388L199.087,46.13L206.696,28.388L214.775,28.388L214.775,59.723L214.892,59.723Z" style="fill:rgb(58,59,65);fill-rule:nonzero;"></path> </g> <g transform="matrix(1,0,0,1,7,-315.401)"> <path d="M259.72,50.311C259.72,56.476 255.037,60.735 247.777,60.735C240.521,60.735 235.838,56.139 235.838,49.866L243.098,49.866C243.098,52.031 244.619,54.085 247.777,54.085C251.059,54.085 252.463,52.48 252.463,50.311C252.463,48.146 250.938,46.541 247.777,46.541L245.321,46.541L245.321,39.891L248.946,39.891C250.001,39.331 250.357,38.286 250.357,37.614C250.357,36.121 249.42,35.224 247.428,35.224C245.436,35.224 244.502,36.121 244.502,37.614L237.242,37.614C237.242,32.236 241.341,28.574 247.428,28.574C253.397,28.574 257.613,32.236 257.613,37.166C257.613,38.883 256.911,40.602 255.621,41.945C258.195,43.887 259.72,46.764 259.72,50.311Z" style="fill:rgb(58,59,65);fill-rule:nonzero;"></path> </g> <g transform="matrix(1,0,0,1,7,-315.438)"> <path d="M289.453,29.285L289.453,60.061L282.194,60.061L282.194,47.586L273.18,47.586L273.18,60.061L265.924,60.061L265.924,29.285L273.18,29.285L273.18,40.825L282.194,40.825L282.194,29.285L289.453,29.285Z" style="fill:rgb(58,59,65);fill-rule:nonzero;"></path> </g> <g transform="matrix(1,0,0,1,7,-315.438)"> <path d="M315.212,55.242L304.092,55.242L302.688,60.061L294.844,60.061L305.147,29.285L314.275,29.285L324.577,60.061L316.733,60.061L315.212,55.242ZM313.223,48.632L309.709,36.94L306.199,48.632L313.223,48.632Z" style="fill:rgb(58,59,65);fill-rule:nonzero;"></path> </g> <g transform="matrix(1,0,0,1,7,-315.438)"> <path d="M353.482,29.285L353.482,60.061L346.226,60.061L346.226,47.586L337.209,47.586L337.209,60.061L330.071,60.061L330.071,29.285L337.327,29.285L337.327,40.825L346.34,40.825L346.34,29.285L353.482,29.285Z" style="fill:rgb(58,59,65);fill-rule:nonzero;"></path> </g> <g transform="matrix(1,0,0,1,7,-315.438)"> <path d="M377.836,42.879L366.599,60.061L361.214,60.061L361.214,29.285L368.471,29.285L368.471,46.427L379.708,29.285L385.093,29.285L385.093,60.061L377.836,60.061L377.836,42.879Z" style="fill:rgb(58,59,65);fill-rule:nonzero;"></path> </g> <g transform="matrix(1,0,0,1,7,-323.767)"> <path d="M409.082,51.246L397.845,68.39L392.463,68.39L392.463,37.615L399.72,37.615L399.72,54.796L410.954,37.615L416.342,37.615L416.342,68.39L409.082,68.39L409.082,51.246ZM398.08,29.285L411.541,29.285L411.541,34.998L398.08,34.998L398.08,29.285Z" style="fill:rgb(58,59,65);fill-rule:nonzero;"></path> </g> <g transform="matrix(14.2188,0,0,1.32268,-1629.9,46.4527)"> <g transform="matrix(1.25581,0,0,13.5,123,-207.983)"> <path d="M0.353,-0.308L0.207,-0.308L0.207,-0L0.109,-0L0.109,-0.7L0.207,-0.7L0.207,-0.396L0.355,-0.396L0.575,-0.7L0.682,-0.7L0.432,-0.361L0.694,-0L0.58,-0L0.353,-0.308Z" style="fill:rgb(58,59,65);fill-rule:nonzero;"></path> </g> <g transform="matrix(1.25581,0,0,13.5,124.231,-207.983)"> <path d="M0.444,-0.365C0.488,-0.353 0.522,-0.332 0.547,-0.303C0.572,-0.273 0.584,-0.237 0.584,-0.196C0.584,-0.155 0.571,-0.118 0.545,-0.087C0.518,-0.057 0.483,-0.033 0.44,-0.017C0.396,-0 0.348,0.008 0.297,0.008C0.25,0.008 0.204,0.001 0.158,-0.013C0.112,-0.027 0.07,-0.048 0.032,-0.076L0.067,-0.15C0.098,-0.126 0.132,-0.108 0.17,-0.096C0.208,-0.084 0.246,-0.078 0.285,-0.078C0.341,-0.078 0.388,-0.09 0.426,-0.114C0.464,-0.137 0.483,-0.17 0.483,-0.211C0.483,-0.246 0.469,-0.274 0.44,-0.293C0.411,-0.312 0.371,-0.321 0.319,-0.321L0.163,-0.321L0.163,-0.402L0.312,-0.402C0.357,-0.402 0.392,-0.411 0.417,-0.43C0.442,-0.448 0.454,-0.473 0.454,-0.506C0.454,-0.543 0.438,-0.572 0.405,-0.593C0.372,-0.614 0.331,-0.625 0.281,-0.625C0.248,-0.625 0.215,-0.62 0.182,-0.611C0.148,-0.602 0.116,-0.588 0.086,-0.569L0.054,-0.651C0.089,-0.671 0.127,-0.686 0.166,-0.696C0.205,-0.706 0.245,-0.711 0.284,-0.711C0.333,-0.711 0.379,-0.703 0.42,-0.688C0.461,-0.673 0.494,-0.65 0.519,-0.621C0.543,-0.592 0.555,-0.557 0.555,-0.518C0.555,-0.483 0.545,-0.452 0.526,-0.425C0.506,-0.398 0.479,-0.378 0.444,-0.365Z" style="fill:rgb(58,59,65);fill-rule:nonzero;"></path> </g> <g transform="matrix(1.25581,0,0,13.5,125.037,-207.983)"> <path d="M0.711,-0.7L0.711,-0L0.611,-0L0.611,-0.312L0.209,-0.312L0.209,-0L0.109,-0L0.109,-0.7L0.209,-0.7L0.209,-0.399L0.611,-0.399L0.611,-0.7L0.711,-0.7Z" style="fill:rgb(58,59,65);fill-rule:nonzero;"></path> </g> <g transform="matrix(1.25581,0,0,13.5,126.067,-207.983)"> <path d="M0.564,-0.175L0.192,-0.175L0.115,-0L0.012,-0L0.329,-0.7L0.428,-0.7L0.746,-0L0.641,-0L0.564,-0.175ZM0.529,-0.255L0.378,-0.598L0.227,-0.255L0.529,-0.255Z" style="fill:rgb(58,59,65);fill-rule:nonzero;"></path> </g> <g transform="matrix(1.25581,0,0,13.5,127.019,-207.983)"> <path d="M0.711,-0.7L0.711,-0L0.611,-0L0.611,-0.312L0.209,-0.312L0.209,-0L0.109,-0L0.109,-0.7L0.209,-0.7L0.209,-0.399L0.611,-0.399L0.611,-0.7L0.711,-0.7Z" style="fill:rgb(58,59,65);fill-rule:nonzero;"></path> </g> <g transform="matrix(1.25581,0,0,13.5,128.048,-207.983)"> <path d="M0.109,-0.7L0.208,-0.7L0.208,-0.16L0.622,-0.7L0.714,-0.7L0.714,-0L0.616,-0L0.616,-0.539L0.201,-0L0.109,-0L0.109,-0.7Z" style="fill:rgb(58,59,65);fill-rule:nonzero;"></path> </g> <g transform="matrix(1.25581,0,0,13.5,129.082,-207.983)"> <path d="M0.622,-0.7L0.622,-0L0.524,-0L0.524,-0.204L0.331,-0.204C0.319,-0.204 0.31,-0.204 0.304,-0.205L0.164,-0L0.058,-0L0.213,-0.222C0.163,-0.239 0.125,-0.267 0.098,-0.306C0.071,-0.344 0.058,-0.392 0.058,-0.448C0.058,-0.527 0.084,-0.589 0.135,-0.633C0.186,-0.678 0.254,-0.7 0.341,-0.7L0.622,-0.7ZM0.159,-0.449C0.159,-0.397 0.174,-0.357 0.204,-0.33C0.235,-0.302 0.28,-0.288 0.339,-0.288L0.524,-0.288L0.524,-0.613L0.345,-0.613C0.285,-0.613 0.239,-0.599 0.207,-0.571C0.175,-0.543 0.159,-0.502 0.159,-0.449Z" style="fill:rgb(58,59,65);fill-rule:nonzero;"></path> </g> <g transform="matrix(1.25581,0,0,13.5,130,-207.983)"> <path d="M0.758,-0L0.757,-0.51L0.504,-0.085L0.458,-0.085L0.205,-0.507L0.205,-0L0.109,-0L0.109,-0.7L0.191,-0.7L0.483,-0.208L0.771,-0.7L0.853,-0.7L0.854,-0L0.758,-0Z" style="fill:rgb(58,59,65);fill-rule:nonzero;"></path> </g> <g transform="matrix(1.25581,0,0,13.5,131.547,-207.983)"> <path d="M0.422,0.008C0.352,0.008 0.289,-0.008 0.233,-0.039C0.176,-0.07 0.132,-0.112 0.1,-0.167C0.068,-0.221 0.052,-0.282 0.052,-0.35C0.052,-0.418 0.068,-0.479 0.1,-0.534C0.132,-0.588 0.176,-0.63 0.233,-0.662C0.29,-0.693 0.353,-0.708 0.423,-0.708C0.478,-0.708 0.528,-0.699 0.573,-0.681C0.618,-0.662 0.657,-0.635 0.689,-0.599L0.624,-0.536C0.571,-0.591 0.506,-0.619 0.427,-0.619C0.375,-0.619 0.328,-0.607 0.286,-0.584C0.244,-0.561 0.211,-0.529 0.188,-0.488C0.164,-0.447 0.152,-0.401 0.152,-0.35C0.152,-0.299 0.164,-0.254 0.188,-0.213C0.211,-0.172 0.244,-0.139 0.286,-0.116C0.328,-0.093 0.375,-0.081 0.427,-0.081C0.505,-0.081 0.571,-0.109 0.624,-0.165L0.689,-0.102C0.657,-0.066 0.618,-0.039 0.573,-0.02C0.527,-0.001 0.477,0.008 0.422,0.008Z" style="fill:rgb(58,59,65);fill-rule:nonzero;"></path> </g> <g transform="matrix(1.25581,0,0,13.5,132.787,-207.983)"> <path d="M0.681,-0.7L0.681,-0L0.583,-0L0.583,-0.613L0.273,-0.613L0.266,-0.408C0.263,-0.311 0.255,-0.233 0.243,-0.173C0.23,-0.113 0.211,-0.068 0.184,-0.038C0.157,-0.007 0.121,0.008 0.076,0.008C0.055,0.008 0.034,0.005 0.013,-0L0.02,-0.089C0.031,-0.086 0.041,-0.085 0.052,-0.085C0.081,-0.085 0.104,-0.097 0.121,-0.119C0.138,-0.142 0.151,-0.177 0.16,-0.223C0.169,-0.269 0.174,-0.33 0.177,-0.405L0.188,-0.7L0.681,-0.7Z" style="fill:rgb(58,59,65);fill-rule:nonzero;"></path> </g> <g transform="matrix(1.25581,0,0,13.5,133.779,-207.983)"> <path d="M0.689,-0.708C0.756,-0.708 0.817,-0.693 0.871,-0.662C0.925,-0.63 0.968,-0.588 0.999,-0.534C1.03,-0.479 1.045,-0.418 1.045,-0.35C1.045,-0.282 1.03,-0.221 0.999,-0.167C0.968,-0.112 0.925,-0.07 0.871,-0.039C0.817,-0.008 0.756,0.008 0.689,0.008C0.626,0.008 0.569,-0.006 0.518,-0.033C0.467,-0.06 0.425,-0.098 0.393,-0.146C0.361,-0.194 0.342,-0.249 0.336,-0.31L0.208,-0.31L0.208,-0L0.109,-0L0.109,-0.7L0.208,-0.7L0.208,-0.4L0.337,-0.4C0.344,-0.459 0.364,-0.512 0.397,-0.559C0.429,-0.606 0.47,-0.642 0.521,-0.669C0.572,-0.695 0.628,-0.708 0.689,-0.708ZM0.689,-0.082C0.737,-0.082 0.781,-0.094 0.82,-0.117C0.859,-0.14 0.889,-0.171 0.912,-0.212C0.934,-0.253 0.945,-0.299 0.945,-0.35C0.945,-0.401 0.934,-0.447 0.912,-0.488C0.889,-0.529 0.859,-0.561 0.82,-0.584C0.781,-0.607 0.737,-0.618 0.689,-0.618C0.642,-0.618 0.599,-0.607 0.56,-0.584C0.521,-0.561 0.491,-0.529 0.469,-0.488C0.446,-0.447 0.435,-0.401 0.435,-0.35C0.435,-0.299 0.446,-0.253 0.469,-0.212C0.491,-0.171 0.521,-0.14 0.56,-0.117C0.599,-0.094 0.642,-0.082 0.689,-0.082Z" style="fill:rgb(58,59,65);fill-rule:nonzero;"></path> </g> <g transform="matrix(1.25581,0,0,13.5,135.159,-207.983)"> <path d="M0.109,-0.7L0.637,-0.7L0.637,-0.615L0.208,-0.615L0.208,-0.415L0.426,-0.415C0.509,-0.415 0.573,-0.398 0.616,-0.363C0.659,-0.328 0.681,-0.278 0.681,-0.213C0.681,-0.144 0.658,-0.092 0.611,-0.055C0.564,-0.018 0.496,-0 0.409,-0L0.109,-0L0.109,-0.7ZM0.405,-0.079C0.462,-0.079 0.506,-0.09 0.536,-0.112C0.566,-0.134 0.581,-0.166 0.581,-0.209C0.581,-0.294 0.522,-0.336 0.405,-0.336L0.208,-0.336L0.208,-0.079L0.405,-0.079Z" style="fill:rgb(58,59,65);fill-rule:nonzero;"></path> </g> <g transform="matrix(1.25581,0,0,13.5,136.077,-207.983)"> <path d="M0.424,0.008C0.353,0.008 0.29,-0.008 0.233,-0.039C0.176,-0.07 0.132,-0.112 0.1,-0.167C0.067,-0.222 0.051,-0.283 0.051,-0.35C0.051,-0.417 0.067,-0.478 0.1,-0.533C0.132,-0.588 0.176,-0.63 0.233,-0.662C0.29,-0.693 0.353,-0.708 0.424,-0.708C0.494,-0.708 0.557,-0.693 0.614,-0.662C0.671,-0.63 0.715,-0.588 0.747,-0.534C0.779,-0.479 0.795,-0.418 0.795,-0.35C0.795,-0.282 0.779,-0.221 0.747,-0.167C0.715,-0.112 0.671,-0.07 0.614,-0.039C0.557,-0.008 0.494,0.008 0.424,0.008ZM0.424,-0.081C0.475,-0.081 0.522,-0.093 0.563,-0.116C0.604,-0.139 0.636,-0.172 0.66,-0.213C0.683,-0.254 0.695,-0.299 0.695,-0.35C0.695,-0.401 0.683,-0.447 0.66,-0.488C0.636,-0.529 0.604,-0.561 0.563,-0.584C0.522,-0.607 0.475,-0.619 0.424,-0.619C0.373,-0.619 0.326,-0.607 0.284,-0.584C0.243,-0.561 0.21,-0.529 0.187,-0.488C0.163,-0.447 0.151,-0.401 0.151,-0.35C0.151,-0.299 0.163,-0.254 0.187,-0.213C0.21,-0.172 0.243,-0.139 0.284,-0.116C0.326,-0.093 0.373,-0.081 0.424,-0.081Z" style="fill:rgb(58,59,65);fill-rule:nonzero;"></path> </g> <g transform="matrix(1.25581,0,0,13.5,137.142,-207.983)"> <path d="M0.545,-0.363C0.592,-0.352 0.628,-0.332 0.653,-0.303C0.677,-0.274 0.689,-0.236 0.689,-0.191C0.689,-0.13 0.667,-0.083 0.623,-0.05C0.578,-0.017 0.514,-0 0.429,-0L0.109,-0L0.109,-0.7L0.41,-0.7C0.487,-0.7 0.547,-0.685 0.59,-0.654C0.632,-0.623 0.654,-0.578 0.654,-0.52C0.654,-0.482 0.645,-0.45 0.625,-0.423C0.607,-0.396 0.58,-0.376 0.545,-0.363ZM0.208,-0.392L0.403,-0.392C0.452,-0.392 0.489,-0.402 0.515,-0.421C0.54,-0.44 0.553,-0.469 0.553,-0.506C0.553,-0.543 0.54,-0.572 0.514,-0.592C0.488,-0.611 0.451,-0.621 0.403,-0.621L0.208,-0.621L0.208,-0.392ZM0.427,-0.079C0.534,-0.079 0.588,-0.119 0.588,-0.199C0.588,-0.239 0.575,-0.269 0.548,-0.288C0.521,-0.307 0.48,-0.316 0.427,-0.316L0.208,-0.316L0.208,-0.079L0.427,-0.079Z" style="fill:rgb(58,59,65);fill-rule:nonzero;"></path> </g> <g transform="matrix(1.25581,0,0,13.5,138.08,-207.983)"> <path d="M0.416,-0.456C0.499,-0.456 0.563,-0.437 0.608,-0.4C0.652,-0.363 0.674,-0.308 0.674,-0.235C0.674,-0.158 0.65,-0.1 0.603,-0.06C0.555,-0.02 0.487,-0 0.398,-0L0.109,-0L0.109,-0.7L0.208,-0.7L0.208,-0.456L0.416,-0.456ZM0.394,-0.079C0.452,-0.079 0.497,-0.092 0.528,-0.118C0.559,-0.145 0.574,-0.183 0.574,-0.233C0.574,-0.329 0.514,-0.377 0.394,-0.377L0.208,-0.377L0.208,-0.079L0.394,-0.079Z" style="fill:rgb(58,59,65);fill-rule:nonzero;"></path> </g> <g transform="matrix(1.25581,0,0,13.5,138.975,-207.983)"> <path d="M0.689,-0.708C0.756,-0.708 0.817,-0.693 0.871,-0.662C0.925,-0.63 0.968,-0.588 0.999,-0.534C1.03,-0.479 1.045,-0.418 1.045,-0.35C1.045,-0.282 1.03,-0.221 0.999,-0.167C0.968,-0.112 0.925,-0.07 0.871,-0.039C0.817,-0.008 0.756,0.008 0.689,0.008C0.626,0.008 0.569,-0.006 0.518,-0.033C0.467,-0.06 0.425,-0.098 0.393,-0.146C0.361,-0.194 0.342,-0.249 0.336,-0.31L0.208,-0.31L0.208,-0L0.109,-0L0.109,-0.7L0.208,-0.7L0.208,-0.4L0.337,-0.4C0.344,-0.459 0.364,-0.512 0.397,-0.559C0.429,-0.606 0.47,-0.642 0.521,-0.669C0.572,-0.695 0.628,-0.708 0.689,-0.708ZM0.689,-0.082C0.737,-0.082 0.781,-0.094 0.82,-0.117C0.859,-0.14 0.889,-0.171 0.912,-0.212C0.934,-0.253 0.945,-0.299 0.945,-0.35C0.945,-0.401 0.934,-0.447 0.912,-0.488C0.889,-0.529 0.859,-0.561 0.82,-0.584C0.781,-0.607 0.737,-0.618 0.689,-0.618C0.642,-0.618 0.599,-0.607 0.56,-0.584C0.521,-0.561 0.491,-0.529 0.469,-0.488C0.446,-0.447 0.435,-0.401 0.435,-0.35C0.435,-0.299 0.446,-0.253 0.469,-0.212C0.491,-0.171 0.521,-0.14 0.56,-0.117C0.599,-0.094 0.642,-0.082 0.689,-0.082Z" style="fill:rgb(58,59,65);fill-rule:nonzero;"></path> </g> <g transform="matrix(1.25581,0,0,13.5,140.355,-207.983)"> <path d="M0.078,-0.7L0.191,-0.7L0.172,-0.221L0.096,-0.221L0.078,-0.7ZM0.135,0.006C0.116,0.006 0.101,-0 0.088,-0.013C0.075,-0.025 0.069,-0.04 0.069,-0.058C0.069,-0.076 0.075,-0.091 0.088,-0.103C0.101,-0.116 0.116,-0.122 0.135,-0.122C0.154,-0.122 0.169,-0.116 0.181,-0.103C0.193,-0.091 0.199,-0.076 0.199,-0.058C0.199,-0.04 0.193,-0.025 0.181,-0.013C0.168,-0 0.153,0.006 0.135,0.006Z" style="fill:rgb(58,59,65);fill-rule:nonzero;"></path> </g> </g> </g> </svg> 